# Blender 3.6.4 Release Candidate
# www.blender.org
mtllib untitled.mtl
o Petit_maison
v 3.886368 32.908546 2.483544
v 4.195888 32.908546 2.545111
v 4.458286 32.908546 2.720440
v 4.633615 32.908546 2.982839
v 4.695183 32.908546 3.292359
v 4.633615 32.908546 3.601878
v 4.458286 32.908546 3.864277
v 4.195888 32.908546 4.039606
v 3.886368 32.908546 4.101173
v 3.576848 32.908546 4.039606
v 3.314450 32.908546 3.864277
v 3.139121 32.908546 3.601878
v 3.077554 32.908546 3.292359
v 3.139121 32.908546 2.982839
v 3.314450 32.908546 2.720440
v 3.576848 32.908546 2.545111
v 3.886368 34.526176 3.292359
v 4.437053 31.141512 2.741674
v 4.437053 28.022697 2.741674
v 4.437053 31.141512 3.843043
v 4.437053 28.022697 3.843043
v 3.335683 31.141512 2.741674
v 3.335683 28.022697 2.741674
v 3.335683 31.141512 3.843043
v 3.335683 28.022697 3.843043
v 3.886368 29.713848 1.535162
v 4.558818 29.713848 1.668921
v 5.128893 29.713848 2.049833
v 5.509806 29.713848 2.619909
v 5.643564 29.713848 3.292358
v 5.509806 29.713848 3.964808
v 5.128893 29.713848 4.534883
v 4.558818 29.713848 4.915796
v 3.886368 29.713848 5.049554
v 3.213918 29.713848 4.915796
v 2.643843 29.713848 4.534883
v 2.262931 29.713848 3.964808
v 2.129172 29.713848 3.292358
v 2.262931 29.713848 2.619909
v 2.643843 29.713848 2.049833
v 3.213918 29.713848 1.668921
v 3.886368 33.228241 3.292358
v 3.886368 31.522058 2.048697
v 4.362297 31.522058 2.143365
v 4.765769 31.522058 2.412957
v 5.035361 31.522058 2.816430
v 5.130030 31.522058 3.292359
v 5.035361 31.522058 3.768287
v 4.765769 31.522058 4.171760
v 4.362297 31.522058 4.441352
v 3.886368 31.522058 4.536020
v 3.410440 31.522058 4.441352
v 3.006967 31.522058 4.171760
v 2.737375 31.522058 3.768287
v 2.642707 31.522058 3.292359
v 2.737375 31.522058 2.816430
v 3.006967 31.522058 2.412957
v 3.410440 31.522058 2.143365
v 3.886368 34.009380 3.292359
v -1.240120 28.147928 4.430100
v 1.415494 31.063639 4.093292
v -1.240120 28.147928 2.430100
v 1.415494 31.063639 2.766908
v 1.953274 28.147928 4.430100
v -0.702340 31.063639 2.766908
v 1.953274 28.147928 2.430100
v -0.702340 31.063639 4.093292
v 0.190557 28.171846 4.430100
v 0.522227 28.171616 4.430100
v 0.522597 28.701193 4.430100
v 0.190927 28.701424 4.430100
v 0.522227 28.171616 4.194670
v 0.190557 28.171846 4.194670
v 0.190927 28.701424 4.194670
v 0.522597 28.701193 4.194670
v 0.522227 28.171616 4.386217
v 0.190557 28.171846 4.386217
v 0.190927 28.701424 4.386217
v 0.522597 28.701193 4.386217
v -0.360525 29.885025 4.430100
v -0.394285 29.684858 4.430100
v -0.266153 29.678530 4.430100
v -0.239177 29.888166 4.430100
v 0.762307 29.867867 4.430100
v 0.751050 29.617802 4.430100
v 1.082042 29.634768 4.430100
v 1.081341 29.871208 4.430100
v 0.762307 29.867867 4.377429
v 0.751050 29.617802 4.377429
v 1.082042 29.634768 4.377429
v 1.081341 29.871208 4.377429
v -0.360525 29.885025 4.379368
v -0.394285 29.684858 4.379368
v -0.266153 29.678530 4.379368
v -0.239177 29.888166 4.379368
v -1.240120 30.147928 4.430100
v -1.240120 30.147928 2.430100
v 1.953274 30.147928 2.430100
v 1.953274 30.147928 4.430100
v -1.240120 30.147928 4.430100
v -0.702340 30.147928 4.093292
v -0.702340 30.147928 2.766908
v -1.240120 30.147928 2.430100
v 1.415494 30.147928 4.093292
v 1.953274 30.147928 4.430100
v 1.415494 30.147928 2.766908
v 1.953274 30.147928 2.430100
v -0.091853 30.853270 4.093292
v -0.087637 30.502048 4.093292
v 0.163041 30.541456 4.093292
v 0.149228 30.819191 4.093292
v -0.091853 30.853270 4.022640
v -0.087637 30.502048 4.022640
v 0.163041 30.541456 4.022640
v 0.149228 30.819191 4.022640
v -3.529752 32.865089 2.543319
v -3.220232 32.865089 2.604887
v -2.957834 32.865089 2.780216
v -2.782506 32.865089 3.042614
v -2.720938 32.865089 3.352134
v -2.782506 32.865089 3.661654
v -2.957834 32.865089 3.924052
v -3.220232 32.865089 4.099381
v -3.529752 32.865089 4.160948
v -3.839272 32.865089 4.099381
v -4.101670 32.865089 3.924052
v -4.276999 32.865089 3.661654
v -4.338567 32.865089 3.352134
v -4.276999 32.865089 3.042614
v -4.101670 32.865089 2.780216
v -3.839272 32.865089 2.604887
v -3.529752 34.482719 3.352134
v -2.979068 31.098053 2.801449
v -2.979068 27.979239 2.801449
v -2.979068 31.098053 3.902818
v -2.979068 27.979239 3.902818
v -4.080437 31.098053 2.801449
v -4.080437 27.979239 2.801449
v -4.080437 31.098053 3.902818
v -4.080437 27.979239 3.902818
v -3.529752 29.670389 1.594938
v -2.857302 29.670389 1.728696
v -2.287227 29.670389 2.109608
v -1.906315 29.670389 2.679684
v -1.772557 29.670389 3.352134
v -1.906315 29.670389 4.024583
v -2.287227 29.670389 4.594659
v -2.857302 29.670389 4.975571
v -3.529752 29.670389 5.109330
v -4.202202 29.670389 4.975571
v -4.772277 29.670389 4.594659
v -5.153189 29.670389 4.024583
v -5.286949 29.670389 3.352134
v -5.153189 29.670389 2.679684
v -4.772277 29.670389 2.109608
v -4.202202 29.670389 1.728696
v -3.529752 33.184780 3.352134
v -3.529752 31.478600 2.108473
v -3.053824 31.478600 2.203141
v -2.650351 31.478600 2.472733
v -2.380759 31.478600 2.876205
v -2.286091 31.478600 3.352134
v -2.380759 31.478600 3.828063
v -2.650351 31.478600 4.231535
v -3.053824 31.478600 4.501127
v -3.529752 31.478600 4.595795
v -4.005681 31.478600 4.501127
v -4.409153 31.478600 4.231535
v -4.678746 31.478600 3.828063
v -4.773414 31.478600 3.352134
v -4.678746 31.478600 2.876205
v -4.409153 31.478600 2.472733
v -4.005681 31.478600 2.203141
v -3.529752 33.965923 3.352134
vn 0.1752 0.4403 -0.8806
vn 0.4988 0.4403 -0.7465
vn 0.7465 0.4403 -0.4988
vn 0.8806 0.4403 -0.1752
vn 0.8806 0.4403 0.1752
vn 0.7465 0.4403 0.4988
vn 0.4988 0.4403 0.7465
vn 0.1752 0.4403 0.8806
vn -0.1752 0.4403 0.8806
vn -0.4988 0.4403 0.7465
vn -0.7465 0.4403 0.4988
vn -0.8806 0.4403 0.1752
vn -0.8806 0.4403 -0.1752
vn -0.7465 0.4403 -0.4988
vn -0.0000 -1.0000 -0.0000
vn -0.4988 0.4403 -0.7465
vn -0.1752 0.4403 -0.8806
vn -0.0000 1.0000 -0.0000
vn -0.0000 -0.0000 1.0000
vn -1.0000 -0.0000 -0.0000
vn 1.0000 -0.0000 -0.0000
vn -0.0000 -0.0000 -1.0000
vn 0.0007 1.0000 -0.0000
vn 1.0000 -0.0007 -0.0000
vn -0.0007 -1.0000 -0.0000
vn -1.0000 0.0007 -0.0000
vn 0.0259 -0.9997 -0.0000
vn 0.0105 -0.9999 -0.0000
vn -0.0512 0.9987 -0.0000
vn -1.0000 -0.0030 -0.0000
vn 0.9990 -0.0450 -0.0000
vn 0.0493 0.9988 -0.0000
vn -0.9918 0.1276 -0.0000
vn 0.9861 -0.1663 -0.0000
vn -0.1400 -0.9902 -0.0000
vn -0.1553 0.9879 -0.0000
vn -0.9988 -0.0497 -0.0000
vn 0.9999 0.0120 -0.0000
vt 0.250000 0.490000
vt 0.250000 0.250000
vt 0.341844 0.471731
vt 0.419706 0.419706
vt 0.471731 0.341844
vt 0.490000 0.250000
vt 0.471731 0.158156
vt 0.419706 0.080294
vt 0.341844 0.028269
vt 0.250000 0.010000
vt 0.158156 0.028269
vt 0.080294 0.080294
vt 0.028269 0.158156
vt 0.010000 0.250000
vt 0.028269 0.341844
vt 0.080294 0.419706
vt 0.750000 0.490000
vt 0.841844 0.471731
vt 0.919706 0.419706
vt 0.971731 0.341844
vt 0.990000 0.250000
vt 0.971731 0.158156
vt 0.919706 0.080294
vt 0.841844 0.028269
vt 0.750000 0.010000
vt 0.658156 0.028269
vt 0.580294 0.080294
vt 0.528269 0.158156
vt 0.510000 0.250000
vt 0.528269 0.341844
vt 0.580294 0.419706
vt 0.658156 0.471731
vt 0.158156 0.471731
vt 0.625000 0.500000
vt 0.875000 0.500000
vt 0.875000 0.750000
vt 0.625000 0.750000
vt 0.375000 0.750000
vt 0.625000 1.000000
vt 0.375000 1.000000
vt 0.375000 0.000000
vt 0.625000 0.000000
vt 0.625000 0.250000
vt 0.375000 0.250000
vt 0.125000 0.500000
vt 0.375000 0.500000
vt 0.125000 0.750000
vt 0.377685 0.887519
vt 0.373589 0.828202
vt 0.598787 0.920766
vt 0.579284 0.923036
vt 0.580707 0.933498
vt 0.492881 0.864390
vt 0.566069 0.839492
vt 0.594824 0.841294
vt 0.594010 0.815727
vt 0.565103 0.812237
vt 0.479333 0.840036
vt 0.598839 0.930448
vt 0.832899 0.542101
vt 0.832899 0.707899
vt 0.667101 0.542101
vt 0.667101 0.707899
vt 0.765151 0.707899
vt 0.784776 0.707899
vt 0.785106 0.707899
vt 0.766233 0.707899
s 0
usemtl Green
f 1/1/1 17/2/1 2/3/1
f 2/3/2 17/2/2 3/4/2
f 3/4/3 17/2/3 4/5/3
f 4/5/4 17/2/4 5/6/4
f 5/6/5 17/2/5 6/7/5
f 6/7/6 17/2/6 7/8/6
f 7/8/7 17/2/7 8/9/7
f 8/9/8 17/2/8 9/10/8
f 9/10/9 17/2/9 10/11/9
f 10/11/10 17/2/10 11/12/10
f 11/12/11 17/2/11 12/13/11
f 12/13/12 17/2/12 13/14/12
f 13/14/13 17/2/13 14/15/13
f 14/15/14 17/2/14 15/16/14
f 1/17/15 2/18/15 3/19/15 4/20/15 5/21/15 6/22/15 7/23/15 8/24/15 9/25/15 10/26/15 11/27/15 12/28/15 13/29/15 14/30/15 15/31/15 16/32/15
f 15/16/16 17/2/16 16/33/16
f 16/33/17 17/2/17 1/1/17
f 18/34/18 22/35/18 24/36/18 20/37/18
f 23/45/15 19/46/15 21/38/15 25/47/15
f 26/1/1 42/2/1 27/3/1
f 27/3/2 42/2/2 28/4/2
f 28/4/3 42/2/3 29/5/3
f 29/5/4 42/2/4 30/6/4
f 30/6/5 42/2/5 31/7/5
f 31/7/6 42/2/6 32/8/6
f 32/8/7 42/2/7 33/9/7
f 33/9/8 42/2/8 34/10/8
f 34/10/9 42/2/9 35/11/9
f 35/11/10 42/2/10 36/12/10
f 36/12/11 42/2/11 37/13/11
f 37/13/12 42/2/12 38/14/12
f 38/14/13 42/2/13 39/15/13
f 39/15/14 42/2/14 40/16/14
f 26/17/15 27/18/15 28/19/15 29/20/15 30/21/15 31/22/15 32/23/15 33/24/15 34/25/15 35/26/15 36/27/15 37/28/15 38/29/15 39/30/15 40/31/15 41/32/15
f 40/16/16 42/2/16 41/33/16
f 41/33/17 42/2/17 26/1/17
f 43/1/1 59/2/1 44/3/1
f 44/3/2 59/2/2 45/4/2
f 45/4/3 59/2/3 46/5/3
f 46/5/4 59/2/4 47/6/4
f 47/6/5 59/2/5 48/7/5
f 48/7/6 59/2/6 49/8/6
f 49/8/7 59/2/7 50/9/7
f 50/9/8 59/2/8 51/10/8
f 51/10/9 59/2/9 52/11/9
f 52/11/10 59/2/10 53/12/10
f 53/12/11 59/2/11 54/13/11
f 54/13/12 59/2/12 55/14/12
f 55/14/13 59/2/13 56/15/13
f 56/15/14 59/2/14 57/16/14
f 43/17/15 44/18/15 45/19/15 46/20/15 47/21/15 48/22/15 49/23/15 50/24/15 51/25/15 52/26/15 53/27/15 54/28/15 55/29/15 56/30/15 57/31/15 58/32/15
f 57/16/16 59/2/16 58/33/16
f 58/33/17 59/2/17 43/1/17
f 116/1/1 132/2/1 117/3/1
f 117/3/2 132/2/2 118/4/2
f 118/4/3 132/2/3 119/5/3
f 119/5/4 132/2/4 120/6/4
f 120/6/5 132/2/5 121/7/5
f 121/7/6 132/2/6 122/8/6
f 122/8/7 132/2/7 123/9/7
f 123/9/8 132/2/8 124/10/8
f 124/10/9 132/2/9 125/11/9
f 125/11/10 132/2/10 126/12/10
f 126/12/11 132/2/11 127/13/11
f 127/13/12 132/2/12 128/14/12
f 128/14/13 132/2/13 129/15/13
f 129/15/14 132/2/14 130/16/14
f 116/17/15 117/18/15 118/19/15 119/20/15 120/21/15 121/22/15 122/23/15 123/24/15 124/25/15 125/26/15 126/27/15 127/28/15 128/29/15 129/30/15 130/31/15 131/32/15
f 130/16/16 132/2/16 131/33/16
f 131/33/17 132/2/17 116/1/17
f 133/34/18 137/35/18 139/36/18 135/37/18
f 138/45/15 134/46/15 136/38/15 140/47/15
f 141/1/1 157/2/1 142/3/1
f 142/3/2 157/2/2 143/4/2
f 143/4/3 157/2/3 144/5/3
f 144/5/4 157/2/4 145/6/4
f 145/6/5 157/2/5 146/7/5
f 146/7/6 157/2/6 147/8/6
f 147/8/7 157/2/7 148/9/7
f 148/9/8 157/2/8 149/10/8
f 149/10/9 157/2/9 150/11/9
f 150/11/10 157/2/10 151/12/10
f 151/12/11 157/2/11 152/13/11
f 152/13/12 157/2/12 153/14/12
f 153/14/13 157/2/13 154/15/13
f 154/15/14 157/2/14 155/16/14
f 141/17/15 142/18/15 143/19/15 144/20/15 145/21/15 146/22/15 147/23/15 148/24/15 149/25/15 150/26/15 151/27/15 152/28/15 153/29/15 154/30/15 155/31/15 156/32/15
f 155/16/16 157/2/16 156/33/16
f 156/33/17 157/2/17 141/1/17
f 158/1/1 174/2/1 159/3/1
f 159/3/2 174/2/2 160/4/2
f 160/4/3 174/2/3 161/5/3
f 161/5/4 174/2/4 162/6/4
f 162/6/5 174/2/5 163/7/5
f 163/7/6 174/2/6 164/8/6
f 164/8/7 174/2/7 165/9/7
f 165/9/8 174/2/8 166/10/8
f 166/10/9 174/2/9 167/11/9
f 167/11/10 174/2/10 168/12/10
f 168/12/11 174/2/11 169/13/11
f 169/13/12 174/2/12 170/14/12
f 170/14/13 174/2/13 171/15/13
f 171/15/14 174/2/14 172/16/14
f 158/17/15 159/18/15 160/19/15 161/20/15 162/21/15 163/22/15 164/23/15 165/24/15 166/25/15 167/26/15 168/27/15 169/28/15 170/29/15 171/30/15 172/31/15 173/32/15
f 172/16/16 174/2/16 173/33/16
f 173/33/17 174/2/17 158/1/17
usemtl Marron
f 21/38/19 20/37/19 24/39/19 25/40/19
f 25/41/20 24/42/20 22/43/20 23/44/20
f 19/46/21 18/34/21 20/37/21 21/38/21
f 23/44/22 22/43/22 18/34/22 19/46/22
f 136/38/19 135/37/19 139/39/19 140/40/19
f 140/41/20 139/42/20 137/43/20 138/44/20
f 134/46/21 133/34/21 135/37/21 136/38/21
f 138/44/22 137/43/22 133/34/22 134/46/22
usemtl Porte
f 68/48/23 69/49/23 72/49/23 73/48/23
f 62/45/15 66/46/15 64/38/15 60/47/15
f 105/37/18 100/36/18 96/36/18 99/37/18
f 72/49/24 75/53/24 79/53/24 76/49/24
f 70/53/25 71/58/25 74/58/25 75/53/25
f 71/58/24 68/48/24 73/48/24 74/58/24
f 69/49/26 70/53/26 75/53/26 72/49/26
f 77/48/19 76/49/19 79/53/19 78/58/19
f 73/48/25 72/49/25 76/49/25 77/48/25
f 75/53/23 74/58/23 78/58/23 79/53/23
f 74/58/26 73/48/26 77/48/26 78/58/26
f 83/50/27 80/59/27 92/59/27 95/50/27
f 87/56/28 84/55/28 88/55/28 91/56/28
f 85/54/29 86/57/29 90/57/29 89/54/29
f 86/57/30 87/56/30 91/56/30 90/57/30
f 84/55/31 85/54/31 89/54/31 88/55/31
f 81/52/32 82/51/32 94/51/32 93/52/32
f 82/51/33 83/50/33 95/50/33 94/51/33
f 80/59/34 81/52/34 93/52/34 92/59/34
f 107/34/18 105/37/18 99/37/18 98/34/18
f 103/35/18 107/34/18 98/34/18 97/35/18
f 100/36/18 103/35/18 97/35/18 96/36/18
f 104/63/21 106/62/21 63/62/21 61/63/21
f 111/67/35 108/66/35 112/66/35 115/67/35
f 109/65/36 110/64/36 114/64/36 113/65/36
f 110/64/37 111/67/37 115/67/37 114/64/37
f 108/66/38 109/65/38 113/65/38 112/66/38
usemtl Par_defaut
f 101/61/18 102/60/18 103/35/18 100/36/18
f 102/60/18 106/62/18 107/34/18 103/35/18
f 106/62/18 104/63/18 105/37/18 107/34/18
f 104/63/18 101/61/18 100/36/18 105/37/18
usemtl fenetre
f 90/57/19 91/56/19 88/55/19 89/54/19
f 92/59/19 93/52/19 94/51/19 95/50/19
f 115/67/19 112/66/19 113/65/19 114/64/19
usemtl brique
f 60/41/20 96/42/20 97/43/20 62/44/20
f 62/44/22 97/43/22 98/34/22 66/46/22
f 66/46/21 98/34/21 99/37/21 64/38/21
f 64/38/19 99/37/19 69/49/19 68/48/19
f 99/37/19 83/50/19 82/51/19 81/52/19 96/39/19 70/53/19 85/54/19 84/55/19 87/56/19 86/57/19
f 96/39/19 60/40/19 71/58/19 70/53/19
f 60/40/19 64/38/19 68/48/19 71/58/19
f 96/39/19 81/52/19 80/59/19 83/50/19 99/37/19
f 86/57/19 85/54/19 70/53/19 69/49/19 99/37/19
f 102/60/20 101/61/20 67/61/20 65/60/20
f 63/62/18 65/60/18 67/61/18 61/63/18
f 101/61/19 104/63/19 110/64/19 109/65/19 108/66/19 67/61/19
f 106/62/22 102/60/22 65/60/22 63/62/22
f 67/61/19 108/66/19 111/67/19 110/64/19 104/63/19 61/63/19
o Table
v 18.000000 -0.112657 -8.000000
v 18.000000 26.112656 -8.000000
v 18.000000 -0.112657 -10.000000
v 18.000000 26.112656 -10.000000
v 20.000000 -0.112657 -8.000000
v 20.000000 26.112656 -8.000000
v 20.000000 -0.112657 -10.000000
v 20.000000 26.112656 -10.000000
v -20.000000 -0.112657 -8.000000
v -20.000000 26.112656 -8.000000
v -20.000000 -0.112657 -10.000000
v -20.000000 26.112656 -10.000000
v -18.000000 -0.112657 -8.000000
v -18.000000 26.112656 -8.000000
v -18.000000 -0.112657 -10.000000
v -18.000000 26.112656 -10.000000
v -20.000000 -0.112657 20.000000
v -20.000000 26.112656 20.000000
v -20.000000 -0.112657 18.000000
v -20.000000 26.112656 18.000000
v -18.000000 -0.112657 20.000000
v -18.000000 26.112656 20.000000
v -18.000000 -0.112657 18.000000
v -18.000000 26.112656 18.000000
v 18.000000 -0.112657 20.000000
v 18.000000 26.112656 20.000000
v 18.000000 -0.112657 18.000000
v 18.000000 26.112656 18.000000
v 20.000000 -0.112657 20.000000
v 20.000000 26.112656 20.000000
v 20.000000 -0.112657 18.000000
v 20.000000 26.112656 18.000000
v -20.080315 26.129940 9.982040
v -20.080315 28.129940 9.982040
v -20.080315 26.129940 -9.982040
v -20.080315 28.129940 -9.982040
v 20.080315 26.129940 9.982040
v 20.080315 28.129940 9.982040
v 20.080315 26.129940 -9.982040
v 20.080315 28.129940 -9.982040
v -20.080315 26.129940 19.709955
v -20.080315 28.129940 19.709955
v 20.080315 28.129940 19.709955
v 20.080315 26.129940 19.709955
vn -1.0000 -0.0000 -0.0000
vn -0.0000 -0.0000 -1.0000
vn 1.0000 -0.0000 -0.0000
vn -0.0000 -0.0000 1.0000
vn -0.0000 -1.0000 -0.0000
vn -0.0000 1.0000 -0.0000
vn -0.9971 -0.0760 -0.0000
vn -0.9971 0.0760 -0.0000
vn -0.7061 0.0538 -0.7061
vn -0.7061 -0.0538 -0.7061
vn 0.7061 0.0538 -0.7061
vn 0.7061 -0.0538 -0.7061
vn 0.9971 0.0760 -0.0000
vn 0.9971 -0.0760 -0.0000
vn -0.7061 0.0538 0.7061
vn 0.7061 0.0538 0.7061
vn 0.7061 -0.0538 0.7061
vn -0.7061 -0.0538 0.7061
vt 0.375000 0.000000
vt 0.625000 0.000000
vt 0.625000 0.250000
vt 0.375000 0.250000
vt 0.625000 0.500000
vt 0.375000 0.500000
vt 0.625000 0.750000
vt 0.375000 0.750000
vt 0.625000 1.000000
vt 0.375000 1.000000
vt 0.125000 0.500000
vt 0.125000 0.750000
vt 0.875000 0.500000
vt 0.875000 0.750000
s 0
f 175/68/39 176/69/39 178/70/39 177/71/39
f 177/71/40 178/70/40 182/72/40 181/73/40
f 181/73/41 182/72/41 180/74/41 179/75/41
f 179/75/42 180/74/42 176/76/42 175/77/42
f 177/78/43 181/73/43 179/75/43 175/79/43
f 182/72/44 178/80/44 176/81/44 180/74/44
f 183/68/39 184/69/39 186/70/39 185/71/39
f 185/71/40 186/70/40 190/72/40 189/73/40
f 189/73/41 190/72/41 188/74/41 187/75/41
f 187/75/42 188/74/42 184/76/42 183/77/42
f 185/78/43 189/73/43 187/75/43 183/79/43
f 190/72/44 186/80/44 184/81/44 188/74/44
f 191/68/39 192/69/39 194/70/39 193/71/39
f 193/71/40 194/70/40 198/72/40 197/73/40
f 197/73/41 198/72/41 196/74/41 195/75/41
f 195/75/42 196/74/42 192/76/42 191/77/42
f 193/78/43 197/73/43 195/75/43 191/79/43
f 198/72/44 194/80/44 192/81/44 196/74/44
f 199/68/39 200/69/39 202/70/39 201/71/39
f 201/71/40 202/70/40 206/72/40 205/73/40
f 205/73/41 206/72/41 204/74/41 203/75/41
f 203/75/42 204/74/42 200/76/42 199/77/42
f 201/78/43 205/73/43 203/75/43 199/79/43
f 206/72/44 202/80/44 200/81/44 204/74/44
s 1
f 207/68/45 208/69/46 210/70/47 209/71/48
f 209/71/48 210/70/47 214/72/49 213/73/50
f 213/73/50 214/72/49 212/74/51 211/75/52
f 212/74/51 208/81/46 216/81/53 217/74/54
f 209/78/48 213/73/50 211/75/52 207/79/45
f 214/72/49 210/80/47 208/81/46 212/74/51
f 218/75/55 217/74/54 216/76/53 215/77/56
f 211/75/52 212/74/51 217/74/54 218/75/55
f 208/69/46 207/68/45 215/68/56 216/69/53
f 207/79/45 211/75/52 218/75/55 215/79/56
o _Chaise
v -11.000000 0.114681 41.297920
v -11.000000 60.441502 41.297920
v -11.000000 0.114681 39.297920
v -11.000000 60.441502 39.297920
v -9.000000 0.114681 41.297920
v -9.000000 60.441502 41.297920
v -9.000000 0.114681 39.297920
v -9.000000 60.441502 39.297920
v -11.000000 -0.067314 23.181152
v -11.000000 21.951180 23.181152
v -11.000000 -0.067314 21.181152
v -11.000000 21.951180 21.181152
v -9.000000 -0.067314 23.181152
v -9.000000 21.951180 23.181152
v -9.000000 -0.067314 21.181152
v -9.000000 21.951180 21.181152
v 8.220022 -0.067314 23.181152
v 8.220022 21.951180 23.181152
v 8.220022 -0.067314 21.181152
v 8.220022 21.951180 21.181152
v 10.220022 -0.067314 23.181152
v 10.220022 21.951180 23.181152
v 10.220022 -0.067314 21.181152
v 10.220022 21.951180 21.181152
v -11.678577 20.104038 41.668282
v -11.678577 22.104040 41.668282
v -11.678577 20.104038 20.384239
v -11.678577 22.104040 20.384239
v 10.142593 20.104038 41.668282
v 10.142593 22.104040 41.668282
v 10.142593 20.104038 20.384239
v 10.142593 22.104040 20.384239
v 7.957172 0.056614 41.297913
v 7.957172 60.383434 41.297913
v 7.957172 0.056614 39.297913
v 7.957172 60.383434 39.297913
v 9.957172 0.056614 41.297913
v 9.957172 60.383434 41.297913
v 9.957172 0.056614 39.297913
v 9.957172 60.383434 39.297913
v -11.056248 34.612080 42.238297
v -11.056248 34.612080 40.238297
v 10.227184 34.450813 42.238297
v 10.227184 34.450813 40.238297
v -10.890911 56.432625 42.238297
v -10.890911 56.432625 40.238297
v 10.392521 56.271355 42.238297
v 10.392521 56.271355 40.238297
vn -1.0000 -0.0000 -0.0000
vn -0.0000 -0.0000 -1.0000
vn 1.0000 -0.0000 -0.0000
vn -0.0000 -0.0000 1.0000
vn -0.0000 -1.0000 -0.0000
vn -0.0000 1.0000 -0.0000
vn -0.0076 -1.0000 -0.0000
vn 1.0000 -0.0076 -0.0000
vn 0.0076 1.0000 -0.0000
vn -1.0000 0.0076 -0.0000
vt 0.375000 0.000000
vt 0.625000 0.000000
vt 0.625000 0.250000
vt 0.375000 0.250000
vt 0.625000 0.500000
vt 0.375000 0.500000
vt 0.625000 0.750000
vt 0.375000 0.750000
vt 0.625000 1.000000
vt 0.375000 1.000000
vt 0.125000 0.500000
vt 0.125000 0.750000
vt 0.875000 0.500000
vt 0.875000 0.750000
s 0
f 219/82/57 220/83/57 222/84/57 221/85/57
f 221/85/58 222/84/58 226/86/58 225/87/58
f 225/87/59 226/86/59 224/88/59 223/89/59
f 223/89/60 224/88/60 220/90/60 219/91/60
f 221/92/61 225/87/61 223/89/61 219/93/61
f 226/86/62 222/94/62 220/95/62 224/88/62
f 227/82/57 228/83/57 230/84/57 229/85/57
f 229/85/58 230/84/58 234/86/58 233/87/58
f 233/87/59 234/86/59 232/88/59 231/89/59
f 231/89/60 232/88/60 228/90/60 227/91/60
f 229/92/61 233/87/61 231/89/61 227/93/61
f 234/86/62 230/94/62 228/95/62 232/88/62
f 235/82/57 236/83/57 238/84/57 237/85/57
f 237/85/58 238/84/58 242/86/58 241/87/58
f 241/87/59 242/86/59 240/88/59 239/89/59
f 239/89/60 240/88/60 236/90/60 235/91/60
f 237/92/61 241/87/61 239/89/61 235/93/61
f 242/86/62 238/94/62 236/95/62 240/88/62
f 243/82/57 244/83/57 246/84/57 245/85/57
f 245/85/58 246/84/58 250/86/58 249/87/58
f 249/87/59 250/86/59 248/88/59 247/89/59
f 247/89/60 248/88/60 244/90/60 243/91/60
f 245/92/61 249/87/61 247/89/61 243/93/61
f 250/86/62 246/94/62 244/95/62 248/88/62
f 251/82/57 252/83/57 254/84/57 253/85/57
f 253/85/58 254/84/58 258/86/58 257/87/58
f 257/87/59 258/86/59 256/88/59 255/89/59
f 255/89/60 256/88/60 252/90/60 251/91/60
f 253/92/61 257/87/61 255/89/61 251/93/61
f 258/86/62 254/94/62 252/95/62 256/88/62
f 259/82/63 260/83/63 262/84/63 261/85/63
f 261/85/64 262/84/64 266/86/64 265/87/64
f 265/87/65 266/86/65 264/88/65 263/89/65
f 263/89/66 264/88/66 260/90/66 259/91/66
f 261/92/60 265/87/60 263/89/60 259/93/60
f 266/86/58 262/94/58 260/95/58 264/88/58
